<svg class="icon icon--medium" width="40" height="40" viewBox="0 0 40 40" xmlns="http://www.w3.org/2000/svg"><g fill="none" fill-rule="nonzero"><path d="M20 0C8.955 0 0 8.955 0 19.999 0 31.044 8.955 40 20 40c11.048 0 20-8.956 20-20.001C40 8.955 31.048 0 20 0z" fill="#556585"/><path d="M20.816 9.172v5.473h5.137v3.4h-5.137V23.6c0 1.255.064 2.06.198 2.417.133.355.379.64.742.853.48.288 1.027.433 1.644.433 1.096 0 2.186-.359 3.27-1.071v3.416c-.924.437-1.763.742-2.513.918-.75.175-1.561.262-2.434.262-.988 0-1.863-.124-2.624-.375-.761-.25-1.41-.607-1.947-1.068-.537-.463-.91-.956-1.118-1.478-.207-.52-.31-1.275-.31-2.265v-7.597H13.33V14.98c.85-.276 1.58-.672 2.185-1.188a5.934 5.934 0 0 0 1.46-1.859c.368-.724.62-1.643.759-2.761h3.082z" fill="#FFF"/></g></svg>
