<svg class="icon icon--xxsmall" width="75" height="69" xmlns="http://www.w3.org/2000/svg"><title>Like</title><g fill="none" fill-rule="evenodd"><path d="M4.129 35.252h18.38c.514 0 .931.419.931.933v28.501a.933.933 0 0 1-.932.933H4.128a.933.933 0 0 1-.931-.933V36.185c0-.514.418-.933.932-.933zM17.6 63.222h2.797a.645.645 0 0 0 .645-.646v-2.797a.645.645 0 0 0-.645-.645h-2.797a.645.645 0 0 0-.645.645v2.797c0 .356.289.645.645.645z" fill="#6783AB"/><path d="M48.213 13.144c0-5.916-3.397-9.548-5.833-9.548-.706 0-1.269.303-1.72.928-.443.613-.971 1.82-.971 4.091 0 11.637-11.857 25.868-12.362 26.468-.202.24-.46.403-.74.49.03.2.05.404.05.612v26.33c.108.039.213.087.315.15a7.157 7.157 0 0 0 3.796 1.089h30.783c4.368 0 4.928-2.135 4.928-3.996 0-.786-.293-1.075-.39-1.17-.484-.474-1.411-.557-1.697-.562h-.03a1.605 1.605 0 0 1-1.596-1.433 1.592 1.592 0 0 1 1.283-1.734c1.112-.217 4.295-1.253 4.295-3.092 0-2.216-2.552-2.667-2.66-2.685a1.598 1.598 0 0 1 .185-3.173c.034-.002 3.94-.244 3.94-2.532 0-2.39-2.51-2.902-2.796-2.953a1.605 1.605 0 0 1-1.32-1.714 1.594 1.594 0 0 1 1.585-1.46c1.096 0 2.225-.649 3.02-1.735.86-1.173 1.168-2.619.803-3.773-.444-1.402-2.24-2.084-5.491-2.084H48.213a1.597 1.597 0 0 1-1.43-2.313c.002-.004 1.43-3.267 1.43-14.201" fill="#FFF"/><path d="M58.601 63.754h2.93c4.368 0 4.928-2.135 4.928-3.996 0-.786-.293-1.075-.39-1.17-.483-.474-1.411-.557-1.697-.562h-.03a1.605 1.605 0 0 1-1.596-1.433 1.593 1.593 0 0 1 1.283-1.734c1.112-.217 4.295-1.253 4.295-3.092 0-2.217-2.551-2.667-2.66-2.685a1.598 1.598 0 0 1 .185-3.173c.034-.002 3.94-.244 3.94-2.532 0-2.39-2.51-2.902-2.797-2.953a1.604 1.604 0 0 1-1.32-1.714 1.593 1.593 0 0 1 1.586-1.46c1.096 0 2.225-.648 3.02-1.735.86-1.173 1.168-2.619.803-3.772-.444-1.403-2.24-2.084-5.491-2.084H48.213a1.598 1.598 0 0 1-1.43-2.313c.002-.005 1.43-3.268 1.43-14.203 0-4.014-1.566-6.973-3.333-8.463-.52.127-.99.502-1.329 1.272 0 0 2.398 11.853-.932 19.711-3.33 7.858 7.459 6.526 7.459 6.526H62.33s2.132.133 1.066 1.865c-1.066 1.731-2.13 3.596-.666 5.993 1.465 2.397 0 3.73-1.598 5.061-1.598 1.332-1.998 3.596-1.332 5.327.666 1.732 1.066 2.664-1.066 4.795-2.13 2.131.667 1.865.267 5.194l-.4 3.33z" fill="#EBEDF9"/><path d="M67.258 37.25c-.828 0-1.513.635-1.586 1.46a1.604 1.604 0 0 0 1.32 1.714c.287.05 2.797.564 2.797 2.952 0 2.289-3.906 2.531-3.94 2.533a1.598 1.598 0 0 0-.185 3.173c.108.018 2.66.468 2.66 2.685 0 1.839-3.183 2.875-4.295 3.092a1.593 1.593 0 0 0-1.283 1.734c.084.816.78 1.434 1.597 1.434h.029c.286.004 1.214.087 1.697.561.097.095.39.384.39 1.17 0 1.86-.56 3.996-4.928 3.996H30.748a7.153 7.153 0 0 1-3.796-1.089 1.613 1.613 0 0 0-.315-.15v-26.33a4.1 4.1 0 0 0-.05-.611c.28-.089.538-.25.74-.491.505-.6 12.362-14.831 12.362-26.468 0-2.271.528-3.478.97-4.09.452-.626 1.015-.929 1.72-.929 2.437 0 5.834 3.632 5.834 9.548 0 10.934-1.428 14.197-1.43 14.202a1.598 1.598 0 0 0 1.43 2.313H65.59c3.251 0 5.047.681 5.49 2.084.366 1.153.058 2.599-.801 3.772-.796 1.087-1.925 1.735-3.02 1.735zM23.441 64.686a.934.934 0 0 1-.933.933H4.128a.933.933 0 0 1-.932-.933V36.185c0-.514.419-.933.933-.933h18.38c.513 0 .932.419.932.933v28.501zm49.545-21.31c0-1.922-.775-3.311-1.794-4.278a8.015 8.015 0 0 0 1.665-1.694c1.473-2.01 1.948-4.487 1.271-6.625-.906-2.864-3.778-4.317-8.538-4.317H50.352c.493-2.227 1.058-6.306 1.058-13.318C51.41 5.52 46.74.4 42.38.4c-1.73 0-3.26.8-4.31 2.251-1.047 1.448-1.577 3.454-1.577 5.964 0 9.936-10.348 22.867-11.502 24.276a4.104 4.104 0 0 0-2.483-.835H4.128A4.128 4.128 0 0 0 0 36.185v28.501a4.128 4.128 0 0 0 4.129 4.129h18.38c1.82 0 3.362-1.18 3.911-2.816 1.353.623 2.826.951 4.328.951h30.783c5.164 0 8.125-2.62 8.125-7.192 0-1.572-.585-2.61-1.154-3.247 1.651-1.02 3.018-2.563 3.018-4.744 0-1.639-.61-2.875-1.456-3.78 1.598-.868 2.922-2.318 2.922-4.61z" fill="#231F20"/></g></svg>
