<svg class="icon icon--medium" width="40" height="40" viewBox="0 0 40 40" xmlns="http://www.w3.org/2000/svg"><g fill="none" fill-rule="nonzero"><path d="M20 0C8.955 0 0 8.955 0 19.999 0 31.044 8.955 40 20 40c11.048 0 20-8.956 20-20.001C40 8.955 31.048 0 20 0z" fill="#F3E008"/><path d="M20 31.044c2.038-.1 3.405-1.751 4.273-2.14.896-.4 3.005.036 3.358.036.353 0 .247-.319.53-1.057.283-.738.573-.495 1.987-.855 1.414-.362 1.264-1.116 1.217-1.305-.047-.188-.895.354-2.757-1.06-1.47-1.117-2.262-2.38-2.53-3.56.024-.959 1.174-1.255 1.91-1.544.802-.314 1.32-.786.825-1.288-.495-.503-.99-.346-1.594-.031-.505.262-1.075.135-1.25.086v-3.511a5.859 5.859 0 0 0-5.858-5.859h-.222a5.859 5.859 0 0 0-5.859 5.859v3.511c-.175.05-.744.176-1.249-.086-.604-.315-1.1-.472-1.594.031-.495.502.024.974.825 1.288.735.289 1.886.585 1.91 1.545-.268 1.179-1.06 2.442-2.53 3.56-1.862 1.413-2.71.871-2.757 1.06-.047.188-.196.942 1.217 1.304 1.414.36 1.704.117 1.987.855.283.738.177 1.057.53 1.057.353 0 2.462-.436 3.358-.035.868.388 2.235 2.04 4.273 2.139" fill="#FFF"/></g></svg>
