<svg class="icon icon--medium" width="40" height="40" viewBox="0 0 40 40" xmlns="http://www.w3.org/2000/svg"><defs><linearGradient x1="5.001%" y1="94.999%" x2="94.001%" y2="5.999%" id="a"><stop stop-color="#FDCD6D" offset="0%"/><stop stop-color="#E53865" offset="38.225%"/><stop stop-color="#C33AA6" offset="68.899%"/><stop stop-color="#7656C5" offset="100%"/></linearGradient></defs><g fill="none" fill-rule="evenodd"><path d="M20 0C8.953 0 0 8.954 0 20c0 11.045 8.953 20 20 20s20-8.955 20-20C40 8.953 31.047 0 20 0z" fill="url(#a)"/><path d="M19.46 9.942h.393c1.817.003 3.626.052 4.73.113 1.387.073 2.654.51 3.69 1.499.984.939 1.491 2.11 1.627 3.434.08.793.16 3.06.163 5.347v.24c-.003 2.207-.08 4.388-.302 5.236-.602 2.29-2.092 3.65-4.409 4.024-.848.138-3.116.221-5.41.223h-.224c-2.366-.002-4.712-.092-5.506-.297-2.294-.59-3.662-2.075-4.043-4.39-.28-1.692-.375-9.584.104-11.297.624-2.225 2.101-3.541 4.355-3.908.986-.161 2.884-.22 4.832-.224zM14.465 27.94c.782.219 3.118.297 5.409.297 2.114 0 4.19-.067 4.97-.152 1.767-.193 2.934-1.282 3.203-3.04.272-1.776.22-8.231.041-9.883-.193-1.77-1.28-2.94-3.034-3.209-1.708-.261-8.124-.24-9.906-.04-1.758.197-2.924 1.284-3.19 3.027-.282 1.852-.225 8.772.003 10.156.24 1.45 1.063 2.44 2.504 2.844z" fill="#FFF"/><path d="M14.838 19.999a5.16 5.16 0 1 1 10.321.006 5.16 5.16 0 0 1-10.32-.006zm5.128 3.336h.03a3.337 3.337 0 1 0-.03 0zM24.155 14.64a1.209 1.209 0 1 0 1.212-1.205h-.003c-.667 0-1.208.539-1.209 1.204z" fill="#FFF"/></g></svg>
