<svg class="icon icon--medium" width="40" height="40" viewBox="0 0 40 40" xmlns="http://www.w3.org/2000/svg"><g fill="none" fill-rule="evenodd"><path d="M20 0C8.955 0 0 8.956 0 20c0 11.047 8.955 20 20 20s20-8.953 20-20C40 8.956 31.045 0 20 0" fill="#6FB9DE"/><path d="M28.751 16.495c.008.192.012.387.012.583 0 5.956-4.53 12.822-12.821 12.822a12.77 12.77 0 0 1-6.909-2.025c.353.043.712.063 1.076.063 2.111 0 4.055-.72 5.596-1.93a4.507 4.507 0 0 1-4.209-3.127c.274.053.558.08.848.08.411 0 .81-.053 1.187-.16a4.507 4.507 0 0 1-3.616-4.418v-.055a4.52 4.52 0 0 0 2.043.563 4.507 4.507 0 0 1-2.005-3.751c0-.827.222-1.6.61-2.268a12.794 12.794 0 0 0 9.289 4.71 4.5 4.5 0 0 1-.116-1.027 4.506 4.506 0 0 1 7.794-3.083 9.003 9.003 0 0 0 2.862-1.092 4.512 4.512 0 0 1-1.98 2.492 9.006 9.006 0 0 0 2.588-.71 9.123 9.123 0 0 1-2.249 2.333" fill="#FFF"/></g></svg>
