<svg class="icon icon--xxsmall" width="75" height="69" xmlns="http://www.w3.org/2000/svg"><title>Dislike</title><g fill="none" fill-rule="evenodd"><path d="M70.871 33.748h-18.38a.933.933 0 0 1-.931-.933V4.314c0-.514.417-.933.932-.933h18.38c.513 0 .931.419.931.933v28.501a.933.933 0 0 1-.932.933zM57.4 5.778h-2.797a.645.645 0 0 0-.645.646v2.797c0 .356.289.645.645.645h2.797a.645.645 0 0 0 .645-.645V6.424a.645.645 0 0 0-.645-.645z" fill="#6783AB"/><path d="M26.787 55.856c0 5.916 3.397 9.548 5.833 9.548.706 0 1.269-.303 1.72-.928.443-.613.971-1.82.971-4.091 0-11.637 11.857-25.868 12.362-26.468.202-.24.46-.403.74-.49-.03-.2-.05-.404-.05-.612V6.485a1.615 1.615 0 0 1-.315-.15 7.157 7.157 0 0 0-3.796-1.089H13.469C9.1 5.246 8.54 7.381 8.54 9.242c0 .786.293 1.075.39 1.17.484.474 1.411.557 1.697.562h.03c.816 0 1.512.617 1.596 1.433a1.592 1.592 0 0 1-1.283 1.734c-1.112.217-4.295 1.253-4.295 3.092 0 2.216 2.552 2.667 2.66 2.685a1.598 1.598 0 0 1-.185 3.173c-.034.002-3.94.244-3.94 2.532 0 2.39 2.51 2.902 2.796 2.953a1.605 1.605 0 0 1 1.32 1.714 1.594 1.594 0 0 1-1.585 1.46c-1.096 0-2.225.649-3.02 1.735-.86 1.173-1.168 2.619-.803 3.773.444 1.402 2.24 2.084 5.491 2.084h17.377a1.597 1.597 0 0 1 1.43 2.313c-.002.004-1.43 3.267-1.43 14.201" fill="#FFF"/><path d="M16.399 5.246h-2.93C9.1 5.246 8.54 7.381 8.54 9.242c0 .786.293 1.075.39 1.17.483.474 1.411.557 1.697.562h.03c.816 0 1.512.617 1.596 1.433a1.593 1.593 0 0 1-1.283 1.734c-1.112.217-4.295 1.253-4.295 3.092 0 2.217 2.551 2.667 2.66 2.685a1.598 1.598 0 0 1-.185 3.173c-.034.002-3.94.244-3.94 2.532 0 2.39 2.51 2.902 2.797 2.953a1.604 1.604 0 0 1 1.32 1.714 1.593 1.593 0 0 1-1.586 1.46c-1.096 0-2.225.648-3.02 1.735-.86 1.173-1.168 2.619-.803 3.772.444 1.403 2.24 2.084 5.491 2.084h17.377a1.598 1.598 0 0 1 1.43 2.313c-.002.005-1.43 3.268-1.43 14.203 0 4.014 1.566 6.973 3.333 8.463.52-.127.99-.502 1.329-1.272 0 0-2.398-11.853.932-19.711 3.33-7.858-7.459-6.526-7.459-6.526H12.67s-2.132-.133-1.066-1.865c1.066-1.731 2.13-3.596.666-5.993-1.465-2.397 0-3.73 1.598-5.061 1.598-1.332 1.998-3.596 1.332-5.327-.666-1.732-1.066-2.664 1.066-4.795 2.13-2.131-.667-1.865-.267-5.194l.4-3.33z" fill="#EBEDF9"/><path d="M7.742 31.75c.828 0 1.513-.635 1.586-1.46a1.604 1.604 0 0 0-1.32-1.714c-.287-.05-2.797-.564-2.797-2.952 0-2.289 3.906-2.531 3.94-2.533a1.598 1.598 0 0 0 .185-3.173c-.108-.018-2.66-.468-2.66-2.685 0-1.839 3.183-2.875 4.295-3.092a1.593 1.593 0 0 0 1.283-1.734 1.605 1.605 0 0 0-1.597-1.434h-.029c-.286-.004-1.214-.087-1.697-.561-.097-.095-.39-.384-.39-1.17 0-1.86.56-3.996 4.928-3.996h30.783c1.344 0 2.657.377 3.796 1.089.102.063.207.111.315.15v26.33c0 .209.02.411.05.611a1.59 1.59 0 0 0-.74.491c-.505.6-12.362 14.831-12.362 26.468 0 2.271-.528 3.478-.97 4.09-.452.626-1.015.929-1.72.929-2.437 0-5.834-3.632-5.834-9.548 0-10.934 1.428-14.197 1.43-14.202a1.598 1.598 0 0 0-1.43-2.313H9.41c-3.251 0-5.047-.681-5.49-2.084-.366-1.153-.058-2.599.801-3.772.796-1.087 1.925-1.735 3.02-1.735zM51.559 4.314c0-.514.419-.933.933-.933h18.38c.513 0 .932.419.932.933v28.501a.933.933 0 0 1-.933.933h-18.38a.934.934 0 0 1-.932-.933V4.314zM2.014 25.624c0 1.922.775 3.311 1.794 4.278a8.015 8.015 0 0 0-1.665 1.694C.67 33.606.195 36.083.872 38.22c.906 2.864 3.778 4.317 8.538 4.317h15.238c-.493 2.227-1.058 6.306-1.058 13.318 0 7.624 4.67 12.744 9.03 12.744 1.73 0 3.26-.8 4.31-2.251 1.047-1.448 1.577-3.454 1.577-5.964 0-9.936 10.348-22.867 11.502-24.276.691.522 1.55.835 2.483.835h18.38A4.128 4.128 0 0 0 75 32.815V4.314A4.128 4.128 0 0 0 70.871.185h-18.38a4.128 4.128 0 0 0-3.911 2.816 10.347 10.347 0 0 0-4.328-.951H13.469c-5.164 0-8.125 2.62-8.125 7.192 0 1.572.585 2.61 1.154 3.247-1.651 1.02-3.018 2.563-3.018 4.744 0 1.639.61 2.875 1.456 3.78-1.598.868-2.922 2.318-2.922 4.61z" fill="#231F20"/></g></svg>
