<svg class="icon icon--medium" width="40" height="40" viewBox="0 0 40 40" xmlns="http://www.w3.org/2000/svg"><g fill="none" fill-rule="evenodd"><path d="M19.999 0C8.953 0 0 8.955 0 20c0 11.046 8.953 20 19.999 20C31.044 40 40 31.046 40 20 40 8.954 31.044 0 19.999 0z" fill="#4B669D"/><path d="M24.492 16.554l-.234 3.045h-3.12v10.576h-3.944V19.6H15.09v-3.045h2.104V14.51c0-.902.023-2.292.678-3.153.69-.912 1.636-1.532 3.265-1.532 2.654 0 3.772.379 3.772.379l-.526 3.116s-.877-.254-1.695-.254c-.818 0-1.55.294-1.55 1.112v2.376h3.354z" fill="#FFF"/></g></svg>
